<svg xmlns="http://www.w3.org/2000/svg" viewBox="0 0 18200 200" width="18200" height="200"><g fill="#ffffff" stroke="#000000" stroke-width="20" stroke-miterlimit="10"><path d="M100 15.09c-22.511 0-44.123 8.952-60.04 24.87C24.042 55.877 15.09 77.489 15.09 100c0 22.511 8.952 44.123 24.87 60.04 15.917 15.918 37.529 24.87 60.04 24.87 22.511 0 44.123-8.952 60.04-24.87 15.918-15.917 24.87-37.529 24.87-60.04 0-22.511-8.952-44.123-24.87-60.04-15.917-15.918-37.529-24.87-60.04-24.87z" stroke-dasharray="0,533.4973315674285" stroke-dashoffset="533.497332"/><path d="M50.7 104.76l28.56 28.57 70.04-66.66" stroke-dasharray="0,137.0880509438512" stroke-dashoffset="137.088051"/></g><g fill="#ffffff" stroke-width="20" stroke-miterlimit="10"><path d="M300 15.09c-22.511 0-44.123 8.952-60.04 24.87-15.918 15.917-24.87 37.529-24.87 60.04 0 22.511 8.952 44.123 24.87 60.04 15.917 15.918 37.529 24.87 60.04 24.87 22.511 0 44.123-8.952 60.04-24.87 15.918-15.917 24.87-37.529 24.87-60.04 0-22.511-8.952-44.123-24.87-60.04-15.917-15.918-37.529-24.87-60.04-24.87z" stroke="#000000" stroke-dasharray="0,533.4973315674285" stroke-dashoffset="533.497332"/><path d="M250.7 104.76l28.56 28.57 70.04-66.66" stroke="#020204" stroke-dasharray="2.2848008490641862,134.803250094787" stroke-dashoffset="137.088051"/></g><g fill="#ffffff" stroke-width="20" stroke-miterlimit="10"><path d="M500 15.09c-22.511 0-44.123 8.952-60.04 24.87-15.918 15.917-24.87 37.529-24.87 60.04 0 22.511 8.952 44.123 24.87 60.04 15.917 15.918 37.529 24.87 60.04 24.87 22.511 0 44.123-8.952 60.04-24.87 15.918-15.917 24.87-37.529 24.87-60.04 0-22.511-8.952-44.123-24.87-60.04-15.917-15.918-37.529-24.87-60.04-24.87z" stroke="#000000" stroke-dasharray="0,533.4973315674285" stroke-dashoffset="533.497332"/><path d="M450.7 104.76l28.56 28.57 70.04-66.66" stroke="#030508" stroke-dasharray="4.5696016981283725,132.51844924572282" stroke-dashoffset="137.088051"/></g><g fill="#ffffff" stroke-width="20" stroke-miterlimit="10"><path d="M700 15.09c-22.511 0-44.123 8.952-60.04 24.87-15.918 15.917-24.87 37.529-24.87 60.04 0 22.511 8.952 44.123 24.87 60.04 15.917 15.918 37.529 24.87 60.04 24.87 22.511 0 44.123-8.952 60.04-24.87 15.918-15.917 24.87-37.529 24.87-60.04 0-22.511-8.952-44.123-24.87-60.04-15.917-15.918-37.529-24.87-60.04-24.87z" stroke="#000000" stroke-dasharray="0,533.4973315674285" stroke-dashoffset="533.497332"/><path d="M650.7 104.76l28.56 28.57 70.04-66.66" stroke="#05070c" stroke-dasharray="6.85440254719256,130.23364839665862" stroke-dashoffset="137.088051"/></g><g fill="#ffffff" stroke-width="20" stroke-miterlimit="10"><path d="M900 15.09c-22.511 0-44.123 8.952-60.04 24.87-15.918 15.917-24.87 37.529-24.87 60.04 0 22.511 8.952 44.123 24.87 60.04 15.917 15.918 37.529 24.87 60.04 24.87 22.511 0 44.123-8.952 60.04-24.87 15.918-15.917 24.87-37.529 24.87-60.04 0-22.511-8.952-44.123-24.87-60.04-15.917-15.918-37.529-24.87-60.04-24.87z" stroke="#000000" stroke-dasharray="0,533.4973315674285" stroke-dashoffset="533.497332"/><path d="M850.7 104.76l28.56 28.57 70.04-66.66" stroke="#070a10" stroke-dasharray="9.139203396256745,127.94884754759444" stroke-dashoffset="137.088051"/></g><g fill="#ffffff" stroke-width="20" stroke-miterlimit="10"><path d="M1100 15.09c-22.511 0-44.123 8.952-60.04 24.87-15.918 15.917-24.87 37.529-24.87 60.04 0 22.511 8.952 44.123 24.87 60.04 15.917 15.918 37.529 24.87 60.04 24.87 22.511 0 44.123-8.952 60.04-24.87 15.918-15.917 24.87-37.529 24.87-60.04 0-22.511-8.952-44.123-24.87-60.04-15.917-15.918-37.529-24.87-60.04-24.87z" stroke="#000000" stroke-dasharray="0,533.4973315674285" stroke-dashoffset="533.497332"/><path d="M1050.7 104.76l28.56 28.57 70.04-66.66" stroke="#080c14" stroke-dasharray="11.424004245320932,125.66404669853024" stroke-dashoffset="137.088051"/></g><g fill="#ffffff" stroke-width="20" stroke-miterlimit="10"><path d="M1300 15.09c-22.511 0-44.123 8.952-60.04 24.87-15.918 15.917-24.87 37.529-24.87 60.04 0 22.511 8.952 44.123 24.87 60.04 15.917 15.918 37.529 24.87 60.04 24.87 22.511 0 44.123-8.952 60.04-24.87 15.918-15.917 24.87-37.529 24.87-60.04 0-22.511-8.952-44.123-24.87-60.04-15.917-15.918-37.529-24.87-60.04-24.87z" stroke="#000000" stroke-dasharray="0,533.4973315674285" stroke-dashoffset="533.497332"/><path d="M1250.7 104.76l28.56 28.57 70.04-66.66" stroke="#0a0f18" stroke-dasharray="13.70880509438512,123.37924584946607" stroke-dashoffset="137.088051"/></g><g fill="#ffffff" stroke-width="20" stroke-miterlimit="10"><path d="M1500 15.09c-22.511 0-44.123 8.952-60.04 24.87-15.918 15.917-24.87 37.529-24.87 60.04 0 22.511 8.952 44.123 24.87 60.04 15.917 15.918 37.529 24.87 60.04 24.87 22.511 0 44.123-8.952 60.04-24.87 15.918-15.917 24.87-37.529 24.87-60.04 0-22.511-8.952-44.123-24.87-60.04-15.917-15.918-37.529-24.87-60.04-24.87z" stroke="#000000" stroke-dasharray="0,533.4973315674285" stroke-dashoffset="533.497332"/><path d="M1450.7 104.76l28.56 28.57 70.04-66.66" stroke="#0c111c" stroke-dasharray="15.993605943449305,121.09444500040188" stroke-dashoffset="137.088051"/></g><g fill="#ffffff" stroke-width="20" stroke-miterlimit="10"><path d="M1700 15.09c-22.511 0-44.123 8.952-60.04 24.87-15.918 15.917-24.87 37.529-24.87 60.04 0 22.511 8.952 44.123 24.87 60.04 15.917 15.918 37.529 24.87 60.04 24.87 22.511 0 44.123-8.952 60.04-24.87 15.918-15.917 24.87-37.529 24.87-60.04 0-22.511-8.952-44.123-24.87-60.04-15.917-15.918-37.529-24.87-60.04-24.87z" stroke="#000000" stroke-dasharray="0,533.4973315674285" stroke-dashoffset="533.497332"/><path d="M1650.7 104.76l28.56 28.57 70.04-66.66" stroke="#0d1420" stroke-dasharray="18.27840679251349,118.8096441513377" stroke-dashoffset="137.088051"/></g><g fill="#ffffff" stroke-width="20" stroke-miterlimit="10"><path d="M1900 15.09c-22.511 0-44.123 8.952-60.04 24.87-15.918 15.917-24.87 37.529-24.87 60.04 0 22.511 8.952 44.123 24.87 60.04 15.917 15.918 37.529 24.87 60.04 24.87 22.511 0 44.123-8.952 60.04-24.87 15.918-15.917 24.87-37.529 24.87-60.04 0-22.511-8.952-44.123-24.87-60.04-15.917-15.918-37.529-24.87-60.04-24.87z" stroke="#000000" stroke-dasharray="0,533.4973315674285" stroke-dashoffset="533.497332"/><path d="M1850.7 104.76l28.56 28.57 70.04-66.66" stroke="#0f1624" stroke-dasharray="20.563207641577677,116.52484330227351" stroke-dashoffset="137.088051"/></g><g fill="#ffffff" stroke-width="20" stroke-miterlimit="10"><path d="M2100 15.09c-22.511 0-44.123 8.952-60.04 24.87-15.918 15.917-24.87 37.529-24.87 60.04 0 22.511 8.952 44.123 24.87 60.04 15.917 15.918 37.529 24.87 60.04 24.87 22.511 0 44.123-8.952 60.04-24.87 15.918-15.917 24.87-37.529 24.87-60.04 0-22.511-8.952-44.123-24.87-60.04-15.917-15.918-37.529-24.87-60.04-24.87z" stroke="#000000" stroke-dasharray="0,533.4973315674285" stroke-dashoffset="533.497332"/><path d="M2050.7 104.76l28.56 28.57 70.04-66.66" stroke="#111928" stroke-dasharray="22.848008490641863,114.24004245320933" stroke-dashoffset="137.088051"/></g><g fill="#ffffff" stroke-width="20" stroke-miterlimit="10"><path d="M2300 15.09c-22.511 0-44.123 8.952-60.04 24.87-15.918 15.917-24.87 37.529-24.87 60.04 0 22.511 8.952 44.123 24.87 60.04 15.917 15.918 37.529 24.87 60.04 24.87 22.511 0 44.123-8.952 60.04-24.87 15.918-15.917 24.87-37.529 24.87-60.04 0-22.511-8.952-44.123-24.87-60.04-15.917-15.918-37.529-24.87-60.04-24.87z" stroke="#000000" stroke-dasharray="0,533.4973315674285" stroke-dashoffset="533.497332"/><path d="M2250.7 104.76l28.56 28.57 70.04-66.66" stroke="#121b2b" stroke-dasharray="25.13280933970605,111.95524160414513" stroke-dashoffset="137.088051"/></g><g fill="#ffffff" stroke-width="20" stroke-miterlimit="10"><path d="M2500 15.09c-22.511 0-44.123 8.952-60.04 24.87-15.918 15.917-24.87 37.529-24.87 60.04 0 22.511 8.952 44.123 24.87 60.04 15.917 15.918 37.529 24.87 60.04 24.87 22.511 0 44.123-8.952 60.04-24.87 15.918-15.917 24.87-37.529 24.87-60.04 0-22.511-8.952-44.123-24.87-60.04-15.917-15.918-37.529-24.87-60.04-24.87z" stroke="#000000" stroke-dasharray="0,533.4973315674285" stroke-dashoffset="533.497332"/><path d="M2450.7 104.76l28.56 28.57 70.04-66.66" stroke="#141e2f" stroke-dasharray="27.41761018877024,109.67044075508096" stroke-dashoffset="137.088051"/></g><g fill="#ffffff" stroke-width="20" stroke-miterlimit="10"><path d="M2700 15.09c-22.511 0-44.123 8.952-60.04 24.87-15.918 15.917-24.87 37.529-24.87 60.04 0 22.511 8.952 44.123 24.87 60.04 15.917 15.918 37.529 24.87 60.04 24.87 22.511 0 44.123-8.952 60.04-24.87 15.918-15.917 24.87-37.529 24.87-60.04 0-22.511-8.952-44.123-24.87-60.04-15.917-15.918-37.529-24.87-60.04-24.87z" stroke="#000000" stroke-dasharray="0,533.4973315674285" stroke-dashoffset="533.497332"/><path d="M2650.7 104.76l28.56 28.57 70.04-66.66" stroke="#162033" stroke-dasharray="29.70241103783442,107.38563990601676" stroke-dashoffset="137.088051"/></g><g fill="#ffffff" stroke-width="20" stroke-miterlimit="10"><path d="M2900 15.09c-22.511 0-44.123 8.952-60.04 24.87-15.918 15.917-24.87 37.529-24.87 60.04 0 22.511 8.952 44.123 24.87 60.04 15.917 15.918 37.529 24.87 60.04 24.87 22.511 0 44.123-8.952 60.04-24.87 15.918-15.917 24.87-37.529 24.87-60.04 0-22.511-8.952-44.123-24.87-60.04-15.917-15.918-37.529-24.87-60.04-24.87z" stroke="#000000" stroke-dasharray="0,533.4973315674285" stroke-dashoffset="533.497332"/><path d="M2850.7 104.76l28.56 28.57 70.04-66.66" stroke="#172337" stroke-dasharray="31.98721188689861,105.10083905695257" stroke-dashoffset="137.088051"/></g><g fill="#ffffff" stroke-width="20" stroke-miterlimit="10"><path d="M3100 15.09c-22.511 0-44.123 8.952-60.04 24.87-15.918 15.917-24.87 37.529-24.87 60.04 0 22.511 8.952 44.123 24.87 60.04 15.917 15.918 37.529 24.87 60.04 24.87 22.511 0 44.123-8.952 60.04-24.87 15.918-15.917 24.87-37.529 24.87-60.04 0-22.511-8.952-44.123-24.87-60.04-15.917-15.918-37.529-24.87-60.04-24.87z" stroke="#000000" stroke-dasharray="0,533.4973315674285" stroke-dashoffset="533.497332"/><path d="M3050.7 104.76l28.56 28.57 70.04-66.66" stroke="#19253b" stroke-dasharray="34.2720127359628,102.8160382078884" stroke-dashoffset="137.088051"/></g><g fill="#ffffff" stroke-width="20" stroke-miterlimit="10"><path d="M3300 15.09c-22.511 0-44.123 8.952-60.04 24.87-15.918 15.917-24.87 37.529-24.87 60.04 0 22.511 8.952 44.123 24.87 60.04 15.917 15.918 37.529 24.87 60.04 24.87 22.511 0 44.123-8.952 60.04-24.87 15.918-15.917 24.87-37.529 24.87-60.04 0-22.511-8.952-44.123-24.87-60.04-15.917-15.918-37.529-24.87-60.04-24.87z" stroke="#000000" stroke-dasharray="0,533.4973315674285" stroke-dashoffset="533.497332"/><path d="M3250.7 104.76l28.56 28.57 70.04-66.66" stroke="#1b283f" stroke-dasharray="36.55681358502698,100.53123735882421" stroke-dashoffset="137.088051"/></g><g fill="#ffffff" stroke-width="20" stroke-miterlimit="10"><path d="M3500 15.09c-22.511 0-44.123 8.952-60.04 24.87-15.918 15.917-24.87 37.529-24.87 60.04 0 22.511 8.952 44.123 24.87 60.04 15.917 15.918 37.529 24.87 60.04 24.87 22.511 0 44.123-8.952 60.04-24.87 15.918-15.917 24.87-37.529 24.87-60.04 0-22.511-8.952-44.123-24.87-60.04-15.917-15.918-37.529-24.87-60.04-24.87z" stroke="#000000" stroke-dasharray="0,533.4973315674285" stroke-dashoffset="533.497332"/><path d="M3450.7 104.76l28.56 28.57 70.04-66.66" stroke="#1c2a43" stroke-dasharray="38.84161443409117,98.24643650976002" stroke-dashoffset="137.088051"/></g><g fill="#ffffff" stroke-width="20" stroke-miterlimit="10"><path d="M3700 15.09c-22.511 0-44.123 8.952-60.04 24.87-15.918 15.917-24.87 37.529-24.87 60.04 0 22.511 8.952 44.123 24.87 60.04 15.917 15.918 37.529 24.87 60.04 24.87 22.511 0 44.123-8.952 60.04-24.87 15.918-15.917 24.87-37.529 24.87-60.04 0-22.511-8.952-44.123-24.87-60.04-15.917-15.918-37.529-24.87-60.04-24.87z" stroke="#000000" stroke-dasharray="0,533.4973315674285" stroke-dashoffset="533.497332"/><path d="M3650.7 104.76l28.56 28.57 70.04-66.66" stroke="#1e2d47" stroke-dasharray="41.12641528315535,95.96163566069582" stroke-dashoffset="137.088051"/></g><g fill="#ffffff" stroke-width="20" stroke-miterlimit="10"><path d="M3900 15.09c-22.511 0-44.123 8.952-60.04 24.87-15.918 15.917-24.87 37.529-24.87 60.04 0 22.511 8.952 44.123 24.87 60.04 15.917 15.918 37.529 24.87 60.04 24.87 22.511 0 44.123-8.952 60.04-24.87 15.918-15.917 24.87-37.529 24.87-60.04 0-22.511-8.952-44.123-24.87-60.04-15.917-15.918-37.529-24.87-60.04-24.87z" stroke="#000000" stroke-dasharray="0,533.4973315674285" stroke-dashoffset="533.497332"/><path d="M3850.7 104.76l28.56 28.57 70.04-66.66" stroke="#202f4b" stroke-dasharray="43.41121613221955,93.67683481163165" stroke-dashoffset="137.088051"/></g><g fill="#ffffff" stroke-width="20" stroke-miterlimit="10"><path d="M4100 15.09c-22.511 0-44.123 8.952-60.04 24.87-15.918 15.917-24.87 37.529-24.87 60.04 0 22.511 8.952 44.123 24.87 60.04 15.917 15.918 37.529 24.87 60.04 24.87 22.511 0 44.123-8.952 60.04-24.87 15.918-15.917 24.87-37.529 24.87-60.04 0-22.511-8.952-44.123-24.87-60.04-15.917-15.918-37.529-24.87-60.04-24.87z" stroke="#000000" stroke-dasharray="0,533.4973315674285" stroke-dashoffset="533.497332"/><path d="M4050.7 104.76l28.56 28.57 70.04-66.66" stroke="#21324f" stroke-dasharray="45.69601698128373,91.39203396256747" stroke-dashoffset="137.088051"/></g><g fill="#ffffff" stroke-width="20" stroke-miterlimit="10"><path d="M4300 15.09c-22.511 0-44.123 8.952-60.04 24.87-15.918 15.917-24.87 37.529-24.87 60.04 0 22.511 8.952 44.123 24.87 60.04 15.917 15.918 37.529 24.87 60.04 24.87 22.511 0 44.123-8.952 60.04-24.87 15.918-15.917 24.87-37.529 24.87-60.04 0-22.511-8.952-44.123-24.87-60.04-15.917-15.918-37.529-24.87-60.04-24.87z" stroke="#000000" stroke-dasharray="0,533.4973315674285" stroke-dashoffset="533.497332"/><path d="M4250.7 104.76l28.56 28.57 70.04-66.66" stroke="#233453" stroke-dasharray="47.98081783034791,89.10723311350327" stroke-dashoffset="137.088051"/></g><g fill="#ffffff" stroke-width="20" stroke-miterlimit="10"><path d="M4500 15.09c-22.511 0-44.123 8.952-60.04 24.87-15.918 15.917-24.87 37.529-24.87 60.04 0 22.511 8.952 44.123 24.87 60.04 15.917 15.918 37.529 24.87 60.04 24.87 22.511 0 44.123-8.952 60.04-24.87 15.918-15.917 24.87-37.529 24.87-60.04 0-22.511-8.952-44.123-24.87-60.04-15.917-15.918-37.529-24.87-60.04-24.87z" stroke="#000000" stroke-dasharray="0,533.4973315674285" stroke-dashoffset="533.497332"/><path d="M4450.7 104.76l28.56 28.57 70.04-66.66" stroke="#253757" stroke-dasharray="50.2656186794121,86.82243226443909" stroke-dashoffset="137.088051"/></g><g fill="#ffffff" stroke-width="20" stroke-miterlimit="10"><path d="M4700 15.09c-22.511 0-44.123 8.952-60.04 24.87-15.918 15.917-24.87 37.529-24.87 60.04 0 22.511 8.952 44.123 24.87 60.04 15.917 15.918 37.529 24.87 60.04 24.87 22.511 0 44.123-8.952 60.04-24.87 15.918-15.917 24.87-37.529 24.87-60.04 0-22.511-8.952-44.123-24.87-60.04-15.917-15.918-37.529-24.87-60.04-24.87z" stroke="#000000" stroke-dasharray="0,533.4973315674285" stroke-dashoffset="533.497332"/><path d="M4650.7 104.76l28.56 28.57 70.04-66.66" stroke="#26395b" stroke-dasharray="52.55041952847628,84.5376314153749" stroke-dashoffset="137.088051"/></g><g fill="#ffffff" stroke-width="20" stroke-miterlimit="10"><path d="M4900 15.09c-22.511 0-44.123 8.952-60.04 24.87-15.918 15.917-24.87 37.529-24.87 60.04 0 22.511 8.952 44.123 24.87 60.04 15.917 15.918 37.529 24.87 60.04 24.87 22.511 0 44.123-8.952 60.04-24.87 15.918-15.917 24.87-37.529 24.87-60.04 0-22.511-8.952-44.123-24.87-60.04-15.917-15.918-37.529-24.87-60.04-24.87z" stroke="#000000" stroke-dasharray="0,533.4973315674285" stroke-dashoffset="533.497332"/><path d="M4850.7 104.76l28.56 28.57 70.04-66.66" stroke="#283c5f" stroke-dasharray="54.83522037754048,82.2528305663107" stroke-dashoffset="137.088051"/></g><g fill="#ffffff" stroke-width="20" stroke-miterlimit="10"><path d="M5100 15.09c-22.511 0-44.123 8.952-60.04 24.87-15.918 15.917-24.87 37.529-24.87 60.04 0 22.511 8.952 44.123 24.87 60.04 15.917 15.918 37.529 24.87 60.04 24.87 22.511 0 44.123-8.952 60.04-24.87 15.918-15.917 24.87-37.529 24.87-60.04 0-22.511-8.952-44.123-24.87-60.04-15.917-15.918-37.529-24.87-60.04-24.87z" stroke="#000000" stroke-dasharray="0,533.4973315674285" stroke-dashoffset="533.497332"/><path d="M5050.7 104.76l28.56 28.57 70.04-66.66" stroke="#2a3e63" stroke-dasharray="57.12002122660466,79.96802971724651" stroke-dashoffset="137.088051"/></g><g fill="#ffffff" stroke-width="20" stroke-miterlimit="10"><path d="M5300 15.09c-22.511 0-44.123 8.952-60.04 24.87-15.918 15.917-24.87 37.529-24.87 60.04 0 22.511 8.952 44.123 24.87 60.04 15.917 15.918 37.529 24.87 60.04 24.87 22.511 0 44.123-8.952 60.04-24.87 15.918-15.917 24.87-37.529 24.87-60.04 0-22.511-8.952-44.123-24.87-60.04-15.917-15.918-37.529-24.87-60.04-24.87z" stroke="#000000" stroke-dasharray="0,533.4973315674285" stroke-dashoffset="533.497332"/><path d="M5250.7 104.76l28.56 28.57 70.04-66.66" stroke="#2b4167" stroke-dasharray="59.40482207566884,77.68322886818234" stroke-dashoffset="137.088051"/></g><g fill="#ffffff" stroke-width="20" stroke-miterlimit="10"><path d="M5500 15.09c-22.511 0-44.123 8.952-60.04 24.87-15.918 15.917-24.87 37.529-24.87 60.04 0 22.511 8.952 44.123 24.87 60.04 15.917 15.918 37.529 24.87 60.04 24.87 22.511 0 44.123-8.952 60.04-24.87 15.918-15.917 24.87-37.529 24.87-60.04 0-22.511-8.952-44.123-24.87-60.04-15.917-15.918-37.529-24.87-60.04-24.87z" stroke="#000000" stroke-dasharray="0,533.4973315674285" stroke-dashoffset="533.497332"/><path d="M5450.7 104.76l28.56 28.57 70.04-66.66" stroke="#2d436b" stroke-dasharray="61.68962292473304,75.39842801911816" stroke-dashoffset="137.088051"/></g><g fill="#ffffff" stroke-width="20" stroke-miterlimit="10"><path d="M5700 15.09c-22.511 0-44.123 8.952-60.04 24.87-15.918 15.917-24.87 37.529-24.87 60.04 0 22.511 8.952 44.123 24.87 60.04 15.917 15.918 37.529 24.87 60.04 24.87 22.511 0 44.123-8.952 60.04-24.87 15.918-15.917 24.87-37.529 24.87-60.04 0-22.511-8.952-44.123-24.87-60.04-15.917-15.918-37.529-24.87-60.04-24.87z" stroke="#000000" stroke-dasharray="0,533.4973315674285" stroke-dashoffset="533.497332"/><path d="M5650.7 104.76l28.56 28.57 70.04-66.66" stroke="#2f466f" stroke-dasharray="63.97442377379722,73.11362717005396" stroke-dashoffset="137.088051"/></g><g fill="#ffffff" stroke-width="20" stroke-miterlimit="10"><path d="M5900 15.09c-22.511 0-44.123 8.952-60.04 24.87-15.918 15.917-24.87 37.529-24.87 60.04 0 22.511 8.952 44.123 24.87 60.04 15.917 15.918 37.529 24.87 60.04 24.87 22.511 0 44.123-8.952 60.04-24.87 15.918-15.917 24.87-37.529 24.87-60.04 0-22.511-8.952-44.123-24.87-60.04-15.917-15.918-37.529-24.87-60.04-24.87z" stroke="#000000" stroke-dasharray="0,533.4973315674285" stroke-dashoffset="533.497332"/><path d="M5850.7 104.76l28.56 28.57 70.04-66.66" stroke="#304873" stroke-dasharray="66.25922462286141,70.82882632098978" stroke-dashoffset="137.088051"/></g><g fill="#ffffff" stroke-width="20" stroke-miterlimit="10"><path d="M6100 15.09c-22.511 0-44.123 8.952-60.04 24.87-15.918 15.917-24.87 37.529-24.87 60.04 0 22.511 8.952 44.123 24.87 60.04 15.917 15.918 37.529 24.87 60.04 24.87 22.511 0 44.123-8.952 60.04-24.87 15.918-15.917 24.87-37.529 24.87-60.04 0-22.511-8.952-44.123-24.87-60.04-15.917-15.918-37.529-24.87-60.04-24.87z" stroke="#000000" stroke-dasharray="0,533.4973315674285" stroke-dashoffset="533.497332"/><path d="M6050.7 104.76l28.56 28.57 70.04-66.66" stroke="#324b77" stroke-dasharray="68.5440254719256,68.5440254719256" stroke-dashoffset="137.088051"/></g><g fill="#ffffff" stroke-width="20" stroke-miterlimit="10"><path d="M6300 15.09c-22.511 0-44.123 8.952-60.04 24.87-15.918 15.917-24.87 37.529-24.87 60.04 0 22.511 8.952 44.123 24.87 60.04 15.917 15.918 37.529 24.87 60.04 24.87 22.511 0 44.123-8.952 60.04-24.87 15.918-15.917 24.87-37.529 24.87-60.04 0-22.511-8.952-44.123-24.87-60.04-15.917-15.918-37.529-24.87-60.04-24.87z" stroke="#000000" stroke-dasharray="0,533.4973315674285" stroke-dashoffset="533.497332"/><path d="M6250.7 104.76l28.56 28.57 70.04-66.66" stroke="#344d7a" stroke-dasharray="70.82882632098978,66.25922462286141" stroke-dashoffset="137.088051"/></g><g fill="#ffffff" stroke-width="20" stroke-miterlimit="10"><path d="M6500 15.09c-22.511 0-44.123 8.952-60.04 24.87-15.918 15.917-24.87 37.529-24.87 60.04 0 22.511 8.952 44.123 24.87 60.04 15.917 15.918 37.529 24.87 60.04 24.87 22.511 0 44.123-8.952 60.04-24.87 15.918-15.917 24.87-37.529 24.87-60.04 0-22.511-8.952-44.123-24.87-60.04-15.917-15.918-37.529-24.87-60.04-24.87z" stroke="#000000" stroke-dasharray="0,533.4973315674285" stroke-dashoffset="533.497332"/><path d="M6450.7 104.76l28.56 28.57 70.04-66.66" stroke="#354f7e" stroke-dasharray="73.11362717005396,63.97442377379722" stroke-dashoffset="137.088051"/></g><g fill="#ffffff" stroke-width="20" stroke-miterlimit="10"><path d="M6700 15.09c-22.511 0-44.123 8.952-60.04 24.87-15.918 15.917-24.87 37.529-24.87 60.04 0 22.511 8.952 44.123 24.87 60.04 15.917 15.918 37.529 24.87 60.04 24.87 22.511 0 44.123-8.952 60.04-24.87 15.918-15.917 24.87-37.529 24.87-60.04 0-22.511-8.952-44.123-24.87-60.04-15.917-15.918-37.529-24.87-60.04-24.87z" stroke="#000000" stroke-dasharray="0,533.4973315674285" stroke-dashoffset="533.497332"/><path d="M6650.7 104.76l28.56 28.57 70.04-66.66" stroke="#375282" stroke-dasharray="75.39842801911816,61.68962292473303" stroke-dashoffset="137.088051"/></g><g fill="#ffffff" stroke-width="20" stroke-miterlimit="10"><path d="M6900 15.09c-22.511 0-44.123 8.952-60.04 24.87-15.918 15.917-24.87 37.529-24.87 60.04 0 22.511 8.952 44.123 24.87 60.04 15.917 15.918 37.529 24.87 60.04 24.87 22.511 0 44.123-8.952 60.04-24.87 15.918-15.917 24.87-37.529 24.87-60.04 0-22.511-8.952-44.123-24.87-60.04-15.917-15.918-37.529-24.87-60.04-24.87z" stroke="#000000" stroke-dasharray="0,533.4973315674285" stroke-dashoffset="533.497332"/><path d="M6850.7 104.76l28.56 28.57 70.04-66.66" stroke="#395486" stroke-dasharray="77.68322886818234,59.40482207566885" stroke-dashoffset="137.088051"/></g><g fill="#ffffff" stroke-width="20" stroke-miterlimit="10"><path d="M7100 15.09c-22.511 0-44.123 8.952-60.04 24.87-15.918 15.917-24.87 37.529-24.87 60.04 0 22.511 8.952 44.123 24.87 60.04 15.917 15.918 37.529 24.87 60.04 24.87 22.511 0 44.123-8.952 60.04-24.87 15.918-15.917 24.87-37.529 24.87-60.04 0-22.511-8.952-44.123-24.87-60.04-15.917-15.918-37.529-24.87-60.04-24.87z" stroke="#000000" stroke-dasharray="0,533.4973315674285" stroke-dashoffset="533.497332"/><path d="M7050.7 104.76l28.56 28.57 70.04-66.66" stroke="#3a578a" stroke-dasharray="79.96802971724654,57.120021226604656" stroke-dashoffset="137.088051"/></g><g fill="#ffffff" stroke-width="20" stroke-miterlimit="10"><path d="M7300 15.09c-22.511 0-44.123 8.952-60.04 24.87-15.918 15.917-24.87 37.529-24.87 60.04 0 22.511 8.952 44.123 24.87 60.04 15.917 15.918 37.529 24.87 60.04 24.87 22.511 0 44.123-8.952 60.04-24.87 15.918-15.917 24.87-37.529 24.87-60.04 0-22.511-8.952-44.123-24.87-60.04-15.917-15.918-37.529-24.87-60.04-24.87z" stroke="#000000" stroke-dasharray="0,533.4973315674285" stroke-dashoffset="533.497332"/><path d="M7250.7 104.76l28.56 28.57 70.04-66.66" stroke="#3c598e" stroke-dasharray="82.2528305663107,54.83522037754048" stroke-dashoffset="137.088051"/></g><g fill="#ffffff" stroke-width="20" stroke-miterlimit="10"><path d="M7500 15.09c-22.511 0-44.123 8.952-60.04 24.87-15.918 15.917-24.87 37.529-24.87 60.04 0 22.511 8.952 44.123 24.87 60.04 15.917 15.918 37.529 24.87 60.04 24.87 22.511 0 44.123-8.952 60.04-24.87 15.918-15.917 24.87-37.529 24.87-60.04 0-22.511-8.952-44.123-24.87-60.04-15.917-15.918-37.529-24.87-60.04-24.87z" stroke="#000000" stroke-dasharray="0,533.4973315674285" stroke-dashoffset="533.497332"/><path d="M7450.7 104.76l28.56 28.57 70.04-66.66" stroke="#3e5c92" stroke-dasharray="84.53763141537489,52.5504195284763" stroke-dashoffset="137.088051"/></g><g fill="#ffffff" stroke-width="20" stroke-miterlimit="10"><path d="M7700 15.09c-22.511 0-44.123 8.952-60.04 24.87-15.918 15.917-24.87 37.529-24.87 60.04 0 22.511 8.952 44.123 24.87 60.04 15.917 15.918 37.529 24.87 60.04 24.87 22.511 0 44.123-8.952 60.04-24.87 15.918-15.917 24.87-37.529 24.87-60.04 0-22.511-8.952-44.123-24.87-60.04-15.917-15.918-37.529-24.87-60.04-24.87z" stroke="#000000" stroke-dasharray="0,533.4973315674285" stroke-dashoffset="533.497332"/><path d="M7650.7 104.76l28.56 28.57 70.04-66.66" stroke="#3f5e96" stroke-dasharray="86.8224322644391,50.26561867941209" stroke-dashoffset="137.088051"/></g><g fill="#ffffff" stroke-width="20" stroke-miterlimit="10"><path d="M7900 15.09c-22.511 0-44.123 8.952-60.04 24.87-15.918 15.917-24.87 37.529-24.87 60.04 0 22.511 8.952 44.123 24.87 60.04 15.917 15.918 37.529 24.87 60.04 24.87 22.511 0 44.123-8.952 60.04-24.87 15.918-15.917 24.87-37.529 24.87-60.04 0-22.511-8.952-44.123-24.87-60.04-15.917-15.918-37.529-24.87-60.04-24.87z" stroke="#000000" stroke-dasharray="0,533.4973315674285" stroke-dashoffset="533.497332"/><path d="M7850.7 104.76l28.56 28.57 70.04-66.66" stroke="#41619a" stroke-dasharray="89.10723311350327,47.98081783034791" stroke-dashoffset="137.088051"/></g><g fill="#ffffff" stroke-width="20" stroke-miterlimit="10"><path d="M8100 15.09c-22.511 0-44.123 8.952-60.04 24.87-15.918 15.917-24.87 37.529-24.87 60.04 0 22.511 8.952 44.123 24.87 60.04 15.917 15.918 37.529 24.87 60.04 24.87 22.511 0 44.123-8.952 60.04-24.87 15.918-15.917 24.87-37.529 24.87-60.04 0-22.511-8.952-44.123-24.87-60.04-15.917-15.918-37.529-24.87-60.04-24.87z" stroke="#000000" stroke-dasharray="0,533.4973315674285" stroke-dashoffset="533.497332"/><path d="M8050.7 104.76l28.56 28.57 70.04-66.66" stroke="#43639e" stroke-dasharray="91.39203396256745,45.696016981283734" stroke-dashoffset="137.088051"/></g><g fill="#ffffff" stroke-width="20" stroke-miterlimit="10"><path d="M8300 15.09c-22.511 0-44.123 8.952-60.04 24.87-15.918 15.917-24.87 37.529-24.87 60.04 0 22.511 8.952 44.123 24.87 60.04 15.917 15.918 37.529 24.87 60.04 24.87 22.511 0 44.123-8.952 60.04-24.87 15.918-15.917 24.87-37.529 24.87-60.04 0-22.511-8.952-44.123-24.87-60.04-15.917-15.918-37.529-24.87-60.04-24.87z" stroke="#000000" stroke-dasharray="0,533.4973315674285" stroke-dashoffset="533.497332"/><path d="M8250.7 104.76l28.56 28.57 70.04-66.66" stroke="#4466a2" stroke-dasharray="93.67683481163165,43.41121613221954" stroke-dashoffset="137.088051"/></g><g fill="#ffffff" stroke-width="20" stroke-miterlimit="10"><path d="M8500 15.09c-22.511 0-44.123 8.952-60.04 24.87-15.918 15.917-24.87 37.529-24.87 60.04 0 22.511 8.952 44.123 24.87 60.04 15.917 15.918 37.529 24.87 60.04 24.87 22.511 0 44.123-8.952 60.04-24.87 15.918-15.917 24.87-37.529 24.87-60.04 0-22.511-8.952-44.123-24.87-60.04-15.917-15.918-37.529-24.87-60.04-24.87z" stroke="#000000" stroke-dasharray="0,533.4973315674285" stroke-dashoffset="533.497332"/><path d="M8450.7 104.76l28.56 28.57 70.04-66.66" stroke="#4668a6" stroke-dasharray="95.96163566069582,41.12641528315536" stroke-dashoffset="137.088051"/></g><g fill="#ffffff" stroke-width="20" stroke-miterlimit="10"><path d="M8700 15.09c-22.511 0-44.123 8.952-60.04 24.87-15.918 15.917-24.87 37.529-24.87 60.04 0 22.511 8.952 44.123 24.87 60.04 15.917 15.918 37.529 24.87 60.04 24.87 22.511 0 44.123-8.952 60.04-24.87 15.918-15.917 24.87-37.529 24.87-60.04 0-22.511-8.952-44.123-24.87-60.04-15.917-15.918-37.529-24.87-60.04-24.87z" stroke="#000000" stroke-dasharray="0,533.4973315674285" stroke-dashoffset="533.497332"/><path d="M8650.7 104.76l28.56 28.57 70.04-66.66" stroke="#486baa" stroke-dasharray="98.24643650976003,38.841614434091156" stroke-dashoffset="137.088051"/></g><g fill="#ffffff" stroke-width="20" stroke-miterlimit="10"><path d="M8900 15.09c-22.511 0-44.123 8.952-60.04 24.87-15.918 15.917-24.87 37.529-24.87 60.04 0 22.511 8.952 44.123 24.87 60.04 15.917 15.918 37.529 24.87 60.04 24.87 22.511 0 44.123-8.952 60.04-24.87 15.918-15.917 24.87-37.529 24.87-60.04 0-22.511-8.952-44.123-24.87-60.04-15.917-15.918-37.529-24.87-60.04-24.87z" stroke="#000000" stroke-dasharray="0,533.4973315674285" stroke-dashoffset="533.497332"/><path d="M8850.7 104.76l28.56 28.57 70.04-66.66" stroke="#496dae" stroke-dasharray="100.5312373588242,36.55681358502699" stroke-dashoffset="137.088051"/></g><g fill="#ffffff" stroke-width="20" stroke-miterlimit="10"><path d="M9100 15.09c-22.511 0-44.123 8.952-60.04 24.87-15.918 15.917-24.87 37.529-24.87 60.04 0 22.511 8.952 44.123 24.87 60.04 15.917 15.918 37.529 24.87 60.04 24.87 22.511 0 44.123-8.952 60.04-24.87 15.918-15.917 24.87-37.529 24.87-60.04 0-22.511-8.952-44.123-24.87-60.04-15.917-15.918-37.529-24.87-60.04-24.87z" stroke="#000000" stroke-dasharray="0,533.4973315674285" stroke-dashoffset="533.497332"/><path d="M9050.7 104.76l28.56 28.57 70.04-66.66" stroke="#4b70b2" stroke-dasharray="102.8160382078884,34.2720127359628" stroke-dashoffset="137.088051"/></g><g fill="#ffffff" stroke-width="20" stroke-miterlimit="10"><path d="M9300 15.09c-22.511 0-44.123 8.952-60.04 24.87-15.918 15.917-24.87 37.529-24.87 60.04 0 22.511 8.952 44.123 24.87 60.04 15.917 15.918 37.529 24.87 60.04 24.87 22.511 0 44.123-8.952 60.04-24.87 15.918-15.917 24.87-37.529 24.87-60.04 0-22.511-8.952-44.123-24.87-60.04-15.917-15.918-37.529-24.87-60.04-24.87z" stroke="#000000" stroke-dasharray="0,533.4973315674285" stroke-dashoffset="533.497332"/><path d="M9250.7 104.76l28.56 28.57 70.04-66.66" stroke="#4d72b6" stroke-dasharray="105.10083905695257,31.987211886898617" stroke-dashoffset="137.088051"/></g><g fill="#ffffff" stroke-width="20" stroke-miterlimit="10"><path d="M9500 15.09c-22.511 0-44.123 8.952-60.04 24.87-15.918 15.917-24.87 37.529-24.87 60.04 0 22.511 8.952 44.123 24.87 60.04 15.917 15.918 37.529 24.87 60.04 24.87 22.511 0 44.123-8.952 60.04-24.87 15.918-15.917 24.87-37.529 24.87-60.04 0-22.511-8.952-44.123-24.87-60.04-15.917-15.918-37.529-24.87-60.04-24.87z" stroke="#000000" stroke-dasharray="0,533.4973315674285" stroke-dashoffset="533.497332"/><path d="M9450.7 104.76l28.56 28.57 70.04-66.66" stroke="#4e75ba" stroke-dasharray="107.38563990601676,29.702411037834423" stroke-dashoffset="137.088051"/></g><g fill="#ffffff" stroke-width="20" stroke-miterlimit="10"><path d="M9700 15.09c-22.511 0-44.123 8.952-60.04 24.87-15.918 15.917-24.87 37.529-24.87 60.04 0 22.511 8.952 44.123 24.87 60.04 15.917 15.918 37.529 24.87 60.04 24.87 22.511 0 44.123-8.952 60.04-24.87 15.918-15.917 24.87-37.529 24.87-60.04 0-22.511-8.952-44.123-24.87-60.04-15.917-15.918-37.529-24.87-60.04-24.87z" stroke="#000000" stroke-dasharray="0,533.4973315674285" stroke-dashoffset="533.497332"/><path d="M9650.7 104.76l28.56 28.57 70.04-66.66" stroke="#5077be" stroke-dasharray="109.67044075508096,27.41761018877023" stroke-dashoffset="137.088051"/></g><g fill="#ffffff" stroke-width="20" stroke-miterlimit="10"><path d="M9900 15.09c-22.511 0-44.123 8.952-60.04 24.87-15.918 15.917-24.87 37.529-24.87 60.04 0 22.511 8.952 44.123 24.87 60.04 15.917 15.918 37.529 24.87 60.04 24.87 22.511 0 44.123-8.952 60.04-24.87 15.918-15.917 24.87-37.529 24.87-60.04 0-22.511-8.952-44.123-24.87-60.04-15.917-15.918-37.529-24.87-60.04-24.87z" stroke="#000000" stroke-dasharray="0,533.4973315674285" stroke-dashoffset="533.497332"/><path d="M9850.7 104.76l28.56 28.57 70.04-66.66" stroke="#527ac2" stroke-dasharray="111.95524160414513,25.132809339706053" stroke-dashoffset="137.088051"/></g><g fill="#ffffff" stroke-width="20" stroke-miterlimit="10"><path d="M10100 15.09c-22.511 0-44.123 8.952-60.04 24.87-15.918 15.917-24.87 37.529-24.87 60.04 0 22.511 8.952 44.123 24.87 60.04 15.917 15.918 37.529 24.87 60.04 24.87 22.511 0 44.123-8.952 60.04-24.87 15.918-15.917 24.87-37.529 24.87-60.04 0-22.511-8.952-44.123-24.87-60.04-15.917-15.918-37.529-24.87-60.04-24.87z" stroke="#000000" stroke-dasharray="0,533.4973315674285" stroke-dashoffset="533.497332"/><path d="M10050.7 104.76l28.56 28.57 70.04-66.66" stroke="#537cc6" stroke-dasharray="114.24004245320933,22.84800849064186" stroke-dashoffset="137.088051"/></g><g fill="#ffffff" stroke-width="20" stroke-miterlimit="10"><path d="M10300 15.09c-22.511 0-44.123 8.952-60.04 24.87-15.918 15.917-24.87 37.529-24.87 60.04 0 22.511 8.952 44.123 24.87 60.04 15.917 15.918 37.529 24.87 60.04 24.87 22.511 0 44.123-8.952 60.04-24.87 15.918-15.917 24.87-37.529 24.87-60.04 0-22.511-8.952-44.123-24.87-60.04-15.917-15.918-37.529-24.87-60.04-24.87z" stroke="#000000" stroke-dasharray="0,533.4973315674285" stroke-dashoffset="533.497332"/><path d="M10250.7 104.76l28.56 28.57 70.04-66.66" stroke="#557fc9" stroke-dasharray="116.52484330227351,20.56320764157768" stroke-dashoffset="137.088051"/></g><g fill="#ffffff" stroke-width="20" stroke-miterlimit="10"><path d="M10500 15.09c-22.511 0-44.123 8.952-60.04 24.87-15.918 15.917-24.87 37.529-24.87 60.04 0 22.511 8.952 44.123 24.87 60.04 15.917 15.918 37.529 24.87 60.04 24.87 22.511 0 44.123-8.952 60.04-24.87 15.918-15.917 24.87-37.529 24.87-60.04 0-22.511-8.952-44.123-24.87-60.04-15.917-15.918-37.529-24.87-60.04-24.87z" stroke="#000000" stroke-dasharray="0,533.4973315674285" stroke-dashoffset="533.497332"/><path d="M10450.7 104.76l28.56 28.57 70.04-66.66" stroke="#5781cd" stroke-dasharray="118.80964415133768,18.278406792513504" stroke-dashoffset="137.088051"/></g><g fill="#ffffff" stroke-width="20" stroke-miterlimit="10"><path d="M10700 15.09c-22.511 0-44.123 8.952-60.04 24.87-15.918 15.917-24.87 37.529-24.87 60.04 0 22.511 8.952 44.123 24.87 60.04 15.917 15.918 37.529 24.87 60.04 24.87 22.511 0 44.123-8.952 60.04-24.87 15.918-15.917 24.87-37.529 24.87-60.04 0-22.511-8.952-44.123-24.87-60.04-15.917-15.918-37.529-24.87-60.04-24.87z" stroke="#000000" stroke-dasharray="0,533.4973315674285" stroke-dashoffset="533.497332"/><path d="M10650.7 104.76l28.56 28.57 70.04-66.66" stroke="#5884d1" stroke-dasharray="121.09444500040189,15.993605943449294" stroke-dashoffset="137.088051"/></g><g fill="#ffffff" stroke-width="20" stroke-miterlimit="10"><path d="M10900 15.09c-22.511 0-44.123 8.952-60.04 24.87-15.918 15.917-24.87 37.529-24.87 60.04 0 22.511 8.952 44.123 24.87 60.04 15.917 15.918 37.529 24.87 60.04 24.87 22.511 0 44.123-8.952 60.04-24.87 15.918-15.917 24.87-37.529 24.87-60.04 0-22.511-8.952-44.123-24.87-60.04-15.917-15.918-37.529-24.87-60.04-24.87z" stroke="#000000" stroke-dasharray="0,533.4973315674285" stroke-dashoffset="533.497332"/><path d="M10850.7 104.76l28.56 28.57 70.04-66.66" stroke="#5a86d5" stroke-dasharray="123.37924584946607,13.708805094385115" stroke-dashoffset="137.088051"/></g><g fill="#ffffff" stroke-width="20" stroke-miterlimit="10"><path d="M11100 15.09c-22.511 0-44.123 8.952-60.04 24.87-15.918 15.917-24.87 37.529-24.87 60.04 0 22.511 8.952 44.123 24.87 60.04 15.917 15.918 37.529 24.87 60.04 24.87 22.511 0 44.123-8.952 60.04-24.87 15.918-15.917 24.87-37.529 24.87-60.04 0-22.511-8.952-44.123-24.87-60.04-15.917-15.918-37.529-24.87-60.04-24.87z" stroke="#000000" stroke-dasharray="0,533.4973315674285" stroke-dashoffset="533.497332"/><path d="M11050.7 104.76l28.56 28.57 70.04-66.66" stroke="#5c89d9" stroke-dasharray="125.66404669853027,11.424004245320923" stroke-dashoffset="137.088051"/></g><g fill="#ffffff" stroke-width="20" stroke-miterlimit="10"><path d="M11300 15.09c-22.511 0-44.123 8.952-60.04 24.87-15.918 15.917-24.87 37.529-24.87 60.04 0 22.511 8.952 44.123 24.87 60.04 15.917 15.918 37.529 24.87 60.04 24.87 22.511 0 44.123-8.952 60.04-24.87 15.918-15.917 24.87-37.529 24.87-60.04 0-22.511-8.952-44.123-24.87-60.04-15.917-15.918-37.529-24.87-60.04-24.87z" stroke="#000000" stroke-dasharray="0,533.4973315674285" stroke-dashoffset="533.497332"/><path d="M11250.7 104.76l28.56 28.57 70.04-66.66" stroke="#5d8bdd" stroke-dasharray="127.94884754759444,9.139203396256743" stroke-dashoffset="137.088051"/></g><g fill="#ffffff" stroke-width="20" stroke-miterlimit="10"><path d="M11500 15.09c-22.511 0-44.123 8.952-60.04 24.87-15.918 15.917-24.87 37.529-24.87 60.04 0 22.511 8.952 44.123 24.87 60.04 15.917 15.918 37.529 24.87 60.04 24.87 22.511 0 44.123-8.952 60.04-24.87 15.918-15.917 24.87-37.529 24.87-60.04 0-22.511-8.952-44.123-24.87-60.04-15.917-15.918-37.529-24.87-60.04-24.87z" stroke="#000000" stroke-dasharray="0,533.4973315674285" stroke-dashoffset="533.497332"/><path d="M11450.7 104.76l28.56 28.57 70.04-66.66" stroke="#5f8ee1" stroke-dasharray="130.23364839665862,6.854402547192565" stroke-dashoffset="137.088051"/></g><g fill="#ffffff" stroke-width="20" stroke-miterlimit="10"><path d="M11700 15.09c-22.511 0-44.123 8.952-60.04 24.87-15.918 15.917-24.87 37.529-24.87 60.04 0 22.511 8.952 44.123 24.87 60.04 15.917 15.918 37.529 24.87 60.04 24.87 22.511 0 44.123-8.952 60.04-24.87 15.918-15.917 24.87-37.529 24.87-60.04 0-22.511-8.952-44.123-24.87-60.04-15.917-15.918-37.529-24.87-60.04-24.87z" stroke="#000000" stroke-dasharray="0,533.4973315674285" stroke-dashoffset="533.497332"/><path d="M11650.7 104.76l28.56 28.57 70.04-66.66" stroke="#6190e5" stroke-dasharray="132.51844924572282,4.5696016981283565" stroke-dashoffset="137.088051"/></g><g fill="#ffffff" stroke-width="20" stroke-miterlimit="10"><path d="M11900 15.09c-22.511 0-44.123 8.952-60.04 24.87-15.918 15.917-24.87 37.529-24.87 60.04 0 22.511 8.952 44.123 24.87 60.04 15.917 15.918 37.529 24.87 60.04 24.87 22.511 0 44.123-8.952 60.04-24.87 15.918-15.917 24.87-37.529 24.87-60.04 0-22.511-8.952-44.123-24.87-60.04-15.917-15.918-37.529-24.87-60.04-24.87z" stroke="#000000" stroke-dasharray="0,533.4973315674285" stroke-dashoffset="533.497332"/><path d="M11850.7 104.76l28.56 28.57 70.04-66.66" stroke="#6293e9" stroke-dasharray="134.80325009478702,2.2848008490641782" stroke-dashoffset="137.088051"/></g><g fill="#ffffff" stroke-width="20" stroke-miterlimit="10"><path d="M12100 15.09c-22.511 0-44.123 8.952-60.04 24.87-15.918 15.917-24.87 37.529-24.87 60.04 0 22.511 8.952 44.123 24.87 60.04 15.917 15.918 37.529 24.87 60.04 24.87 22.511 0 44.123-8.952 60.04-24.87 15.918-15.917 24.87-37.529 24.87-60.04 0-22.511-8.952-44.123-24.87-60.04-15.917-15.918-37.529-24.87-60.04-24.87z" stroke="#000000" stroke-dasharray="0,533.4973315674285" stroke-dashoffset="533.497332"/><path d="M12050.7 104.76l28.56 28.57 70.04-66.66" stroke="#6495ed"/></g><g fill="#ffffff" stroke-width="20" stroke-miterlimit="10"><path d="M12300 15.09c-22.511 0-44.123 8.952-60.04 24.87-15.918 15.917-24.87 37.529-24.87 60.04 0 22.511 8.952 44.123 24.87 60.04 15.917 15.918 37.529 24.87 60.04 24.87 22.511 0 44.123-8.952 60.04-24.87 15.918-15.917 24.87-37.529 24.87-60.04 0-22.511-8.952-44.123-24.87-60.04-15.917-15.918-37.529-24.87-60.04-24.87z" stroke="#030508" stroke-dasharray="1.3206557720307868,532.1766757953977" stroke-dashoffset="533.497332"/><path d="M12250.7 104.76l28.56 28.57 70.04-66.66" stroke="#6495ed"/></g><g fill="#ffffff" stroke-width="20" stroke-miterlimit="10"><path d="M12500 15.09c-22.511 0-44.123 8.952-60.04 24.87-15.918 15.917-24.87 37.529-24.87 60.04 0 22.511 8.952 44.123 24.87 60.04 15.917 15.918 37.529 24.87 60.04 24.87 22.511 0 44.123-8.952 60.04-24.87 15.918-15.917 24.87-37.529 24.87-60.04 0-22.511-8.952-44.123-24.87-60.04-15.917-15.918-37.529-24.87-60.04-24.87z" stroke="#070a10" stroke-dasharray="5.676814322125089,527.8205172453034" stroke-dashoffset="533.497332"/><path d="M12450.7 104.76l28.56 28.57 70.04-66.66" stroke="#6495ed"/></g><g fill="#ffffff" stroke-width="20" stroke-miterlimit="10"><path d="M12700 15.09c-22.511 0-44.123 8.952-60.04 24.87-15.918 15.917-24.87 37.529-24.87 60.04 0 22.511 8.952 44.123 24.87 60.04 15.917 15.918 37.529 24.87 60.04 24.87 22.511 0 44.123-8.952 60.04-24.87 15.918-15.917 24.87-37.529 24.87-60.04 0-22.511-8.952-44.123-24.87-60.04-15.917-15.918-37.529-24.87-60.04-24.87z" stroke="#0a0f18" stroke-dasharray="13.797849430857498,519.6994821365711" stroke-dashoffset="533.497332"/><path d="M12650.7 104.76l28.56 28.57 70.04-66.66" stroke="#6495ed"/></g><g fill="#ffffff" stroke-width="20" stroke-miterlimit="10"><path d="M12900 15.09c-22.511 0-44.123 8.952-60.04 24.87-15.918 15.917-24.87 37.529-24.87 60.04 0 22.511 8.952 44.123 24.87 60.04 15.917 15.918 37.529 24.87 60.04 24.87 22.511 0 44.123-8.952 60.04-24.87 15.918-15.917 24.87-37.529 24.87-60.04 0-22.511-8.952-44.123-24.87-60.04-15.917-15.918-37.529-24.87-60.04-24.87z" stroke="#0d1420" stroke-dasharray="26.637952274748784,506.85937929267976" stroke-dashoffset="533.497332"/><path d="M12850.7 104.76l28.56 28.57 70.04-66.66" stroke="#6495ed"/></g><g fill="#ffffff" stroke-width="20" stroke-miterlimit="10"><path d="M13100 15.09c-22.511 0-44.123 8.952-60.04 24.87-15.918 15.917-24.87 37.529-24.87 60.04 0 22.511 8.952 44.123 24.87 60.04 15.917 15.918 37.529 24.87 60.04 24.87 22.511 0 44.123-8.952 60.04-24.87 15.918-15.917 24.87-37.529 24.87-60.04 0-22.511-8.952-44.123-24.87-60.04-15.917-15.918-37.529-24.87-60.04-24.87z" stroke="#111927" stroke-dasharray="45.40354733832251,488.09378422910606" stroke-dashoffset="533.497332"/><path d="M13050.7 104.76l28.56 28.57 70.04-66.66" stroke="#6495ed"/></g><g fill="#ffffff" stroke-width="20" stroke-miterlimit="10"><path d="M13300 15.09c-22.511 0-44.123 8.952-60.04 24.87-15.918 15.917-24.87 37.529-24.87 60.04 0 22.511 8.952 44.123 24.87 60.04 15.917 15.918 37.529 24.87 60.04 24.87 22.511 0 44.123-8.952 60.04-24.87 15.918-15.917 24.87-37.529 24.87-60.04 0-22.511-8.952-44.123-24.87-60.04-15.917-15.918-37.529-24.87-60.04-24.87z" stroke="#141e2f" stroke-dasharray="71.46024707516713,462.0370844922614" stroke-dashoffset="533.497332"/><path d="M13250.7 104.76l28.56 28.57 70.04-66.66" stroke="#6495ed"/></g><g fill="#ffffff" stroke-width="20" stroke-miterlimit="10"><path d="M13500 15.09c-22.511 0-44.123 8.952-60.04 24.87-15.918 15.917-24.87 37.529-24.87 60.04 0 22.511 8.952 44.123 24.87 60.04 15.917 15.918 37.529 24.87 60.04 24.87 22.511 0 44.123-8.952 60.04-24.87 15.918-15.917 24.87-37.529 24.87-60.04 0-22.511-8.952-44.123-24.87-60.04-15.917-15.918-37.529-24.87-60.04-24.87z" stroke="#172337" stroke-dasharray="105.87897915452162,427.618352412907" stroke-dashoffset="533.497332"/><path d="M13450.7 104.76l28.56 28.57 70.04-66.66" stroke="#6495ed"/></g><g fill="#ffffff" stroke-width="20" stroke-miterlimit="10"><path d="M13700 15.09c-22.511 0-44.123 8.952-60.04 24.87-15.918 15.917-24.87 37.529-24.87 60.04 0 22.511 8.952 44.123 24.87 60.04 15.917 15.918 37.529 24.87 60.04 24.87 22.511 0 44.123-8.952 60.04-24.87 15.918-15.917 24.87-37.529 24.87-60.04 0-22.511-8.952-44.123-24.87-60.04-15.917-15.918-37.529-24.87-60.04-24.87z" stroke="#1b283f" stroke-dasharray="148.34082015510634,385.1565114123222" stroke-dashoffset="533.497332"/><path d="M13650.7 104.76l28.56 28.57 70.04-66.66" stroke="#6495ed"/></g><g fill="#ffffff" stroke-width="20" stroke-miterlimit="10"><path d="M13900 15.09c-22.511 0-44.123 8.952-60.04 24.87-15.918 15.917-24.87 37.529-24.87 60.04 0 22.511 8.952 44.123 24.87 60.04 15.917 15.918 37.529 24.87 60.04 24.87 22.511 0 44.123-8.952 60.04-24.87 15.918-15.917 24.87-37.529 24.87-60.04 0-22.511-8.952-44.123-24.87-60.04-15.917-15.918-37.529-24.87-60.04-24.87z" stroke="#1e2d47" stroke-dasharray="195.95128026674485,337.5460513006837" stroke-dashoffset="533.497332"/><path d="M13850.7 104.76l28.56 28.57 70.04-66.66" stroke="#6495ed"/></g><g fill="#ffffff" stroke-width="20" stroke-miterlimit="10"><path d="M14100 15.09c-22.511 0-44.123 8.952-60.04 24.87-15.918 15.917-24.87 37.529-24.87 60.04 0 22.511 8.952 44.123 24.87 60.04 15.917 15.918 37.529 24.87 60.04 24.87 22.511 0 44.123-8.952 60.04-24.87 15.918-15.917 24.87-37.529 24.87-60.04 0-22.511-8.952-44.123-24.87-60.04-15.917-15.918-37.529-24.87-60.04-24.87z" stroke="#21324f" stroke-dasharray="243.9425830468652,289.55474852056335" stroke-dashoffset="533.497332"/><path d="M14050.7 104.76l28.56 28.57 70.04-66.66" stroke="#6495ed"/></g><g fill="#ffffff" stroke-width="20" stroke-miterlimit="10"><path d="M14300 15.09c-22.511 0-44.123 8.952-60.04 24.87-15.918 15.917-24.87 37.529-24.87 60.04 0 22.511 8.952 44.123 24.87 60.04 15.917 15.918 37.529 24.87 60.04 24.87 22.511 0 44.123-8.952 60.04-24.87 15.918-15.917 24.87-37.529 24.87-60.04 0-22.511-8.952-44.123-24.87-60.04-15.917-15.918-37.529-24.87-60.04-24.87z" stroke="#253757" stroke-dasharray="288.3315127402921,245.1658188271364" stroke-dashoffset="533.497332"/><path d="M14250.7 104.76l28.56 28.57 70.04-66.66" stroke="#6495ed"/></g><g fill="#ffffff" stroke-width="20" stroke-miterlimit="10"><path d="M14500 15.09c-22.511 0-44.123 8.952-60.04 24.87-15.918 15.917-24.87 37.529-24.87 60.04 0 22.511 8.952 44.123 24.87 60.04 15.917 15.918 37.529 24.87 60.04 24.87 22.511 0 44.123-8.952 60.04-24.87 15.918-15.917 24.87-37.529 24.87-60.04 0-22.511-8.952-44.123-24.87-60.04-15.917-15.918-37.529-24.87-60.04-24.87z" stroke="#283c5f" stroke-dasharray="327.3511599264938,206.1461716409348" stroke-dashoffset="533.497332"/><path d="M14450.7 104.76l28.56 28.57 70.04-66.66" stroke="#6495ed"/></g><g fill="#ffffff" stroke-width="20" stroke-miterlimit="10"><path d="M14700 15.09c-22.511 0-44.123 8.952-60.04 24.87-15.918 15.917-24.87 37.529-24.87 60.04 0 22.511 8.952 44.123 24.87 60.04 15.917 15.918 37.529 24.87 60.04 24.87 22.511 0 44.123-8.952 60.04-24.87 15.918-15.917 24.87-37.529 24.87-60.04 0-22.511-8.952-44.123-24.87-60.04-15.917-15.918-37.529-24.87-60.04-24.87z" stroke="#2b4167" stroke-dasharray="360.86812345209654,172.629208115332" stroke-dashoffset="533.497332"/><path d="M14650.7 104.76l28.56 28.57 70.04-66.66" stroke="#6495ed"/></g><g fill="#ffffff" stroke-width="20" stroke-miterlimit="10"><path d="M14900 15.09c-22.511 0-44.123 8.952-60.04 24.87-15.918 15.917-24.87 37.529-24.87 60.04 0 22.511 8.952 44.123 24.87 60.04 15.917 15.918 37.529 24.87 60.04 24.87 22.511 0 44.123-8.952 60.04-24.87 15.918-15.917 24.87-37.529 24.87-60.04 0-22.511-8.952-44.123-24.87-60.04-15.917-15.918-37.529-24.87-60.04-24.87z" stroke="#2f466f" stroke-dasharray="389.4356562580245,144.06167530940405" stroke-dashoffset="533.497332"/><path d="M14850.7 104.76l28.56 28.57 70.04-66.66" stroke="#6495ed"/></g><g fill="#ffffff" stroke-width="20" stroke-miterlimit="10"><path d="M15100 15.09c-22.511 0-44.123 8.952-60.04 24.87-15.918 15.917-24.87 37.529-24.87 60.04 0 22.511 8.952 44.123 24.87 60.04 15.917 15.918 37.529 24.87 60.04 24.87 22.511 0 44.123-8.952 60.04-24.87 15.918-15.917 24.87-37.529 24.87-60.04 0-22.511-8.952-44.123-24.87-60.04-15.917-15.918-37.529-24.87-60.04-24.87z" stroke="#324b77" stroke-dasharray="413.7598899474278,119.7374416200008" stroke-dashoffset="533.497332"/><path d="M15050.7 104.76l28.56 28.57 70.04-66.66" stroke="#6495ed"/></g><g fill="#ffffff" stroke-width="20" stroke-miterlimit="10"><path d="M15300 15.09c-22.511 0-44.123 8.952-60.04 24.87-15.918 15.917-24.87 37.529-24.87 60.04 0 22.511 8.952 44.123 24.87 60.04 15.917 15.918 37.529 24.87 60.04 24.87 22.511 0 44.123-8.952 60.04-24.87 15.918-15.917 24.87-37.529 24.87-60.04 0-22.511-8.952-44.123-24.87-60.04-15.917-15.918-37.529-24.87-60.04-24.87z" stroke="#354f7e" stroke-dasharray="434.4972752757419,99.00005629168663" stroke-dashoffset="533.497332"/><path d="M15250.7 104.76l28.56 28.57 70.04-66.66" stroke="#6495ed"/></g><g fill="#ffffff" stroke-width="20" stroke-miterlimit="10"><path d="M15500 15.09c-22.511 0-44.123 8.952-60.04 24.87-15.918 15.917-24.87 37.529-24.87 60.04 0 22.511 8.952 44.123 24.87 60.04 15.917 15.918 37.529 24.87 60.04 24.87 22.511 0 44.123-8.952 60.04-24.87 15.918-15.917 24.87-37.529 24.87-60.04 0-22.511-8.952-44.123-24.87-60.04-15.917-15.918-37.529-24.87-60.04-24.87z" stroke="#395486" stroke-dasharray="452.201979903498,81.29535166393053" stroke-dashoffset="533.497332"/><path d="M15450.7 104.76l28.56 28.57 70.04-66.66" stroke="#6495ed"/></g><g fill="#ffffff" stroke-width="20" stroke-miterlimit="10"><path d="M15700 15.09c-22.511 0-44.123 8.952-60.04 24.87-15.918 15.917-24.87 37.529-24.87 60.04 0 22.511 8.952 44.123 24.87 60.04 15.917 15.918 37.529 24.87 60.04 24.87 22.511 0 44.123-8.952 60.04-24.87 15.918-15.917 24.87-37.529 24.87-60.04 0-22.511-8.952-44.123-24.87-60.04-15.917-15.918-37.529-24.87-60.04-24.87z" stroke="#3c598e" stroke-dasharray="467.32654223177315,66.17078933565543" stroke-dashoffset="533.497332"/><path d="M15650.7 104.76l28.56 28.57 70.04-66.66" stroke="#6495ed"/></g><g fill="#ffffff" stroke-width="20" stroke-miterlimit="10"><path d="M15900 15.09c-22.511 0-44.123 8.952-60.04 24.87-15.918 15.917-24.87 37.529-24.87 60.04 0 22.511 8.952 44.123 24.87 60.04 15.917 15.918 37.529 24.87 60.04 24.87 22.511 0 44.123-8.952 60.04-24.87 15.918-15.917 24.87-37.529 24.87-60.04 0-22.511-8.952-44.123-24.87-60.04-15.917-15.918-37.529-24.87-60.04-24.87z" stroke="#3f5e96" stroke-dasharray="480.23731130885085,53.26002025857771" stroke-dashoffset="533.497332"/><path d="M15850.7 104.76l28.56 28.57 70.04-66.66" stroke="#6495ed"/></g><g fill="#ffffff" stroke-width="20" stroke-miterlimit="10"><path d="M16100 15.09c-22.511 0-44.123 8.952-60.04 24.87-15.918 15.917-24.87 37.529-24.87 60.04 0 22.511 8.952 44.123 24.87 60.04 15.917 15.918 37.529 24.87 60.04 24.87 22.511 0 44.123-8.952 60.04-24.87 15.918-15.917 24.87-37.529 24.87-60.04 0-22.511-8.952-44.123-24.87-60.04-15.917-15.918-37.529-24.87-60.04-24.87z" stroke="#43639e" stroke-dasharray="491.23142343146753,42.26590813596102" stroke-dashoffset="533.497332"/><path d="M16050.7 104.76l28.56 28.57 70.04-66.66" stroke="#6495ed"/></g><g fill="#ffffff" stroke-width="20" stroke-miterlimit="10"><path d="M16300 15.09c-22.511 0-44.123 8.952-60.04 24.87-15.918 15.917-24.87 37.529-24.87 60.04 0 22.511 8.952 44.123 24.87 60.04 15.917 15.918 37.529 24.87 60.04 24.87 22.511 0 44.123-8.952 60.04-24.87 15.918-15.917 24.87-37.529 24.87-60.04 0-22.511-8.952-44.123-24.87-60.04-15.917-15.918-37.529-24.87-60.04-24.87z" stroke="#4668a6" stroke-dasharray="500.55146374224614,32.9458678251824" stroke-dashoffset="533.497332"/><path d="M16250.7 104.76l28.56 28.57 70.04-66.66" stroke="#6495ed"/></g><g fill="#ffffff" stroke-width="20" stroke-miterlimit="10"><path d="M16500 15.09c-22.511 0-44.123 8.952-60.04 24.87-15.918 15.917-24.87 37.529-24.87 60.04 0 22.511 8.952 44.123 24.87 60.04 15.917 15.918 37.529 24.87 60.04 24.87 22.511 0 44.123-8.952 60.04-24.87 15.918-15.917 24.87-37.529 24.87-60.04 0-22.511-8.952-44.123-24.87-60.04-15.917-15.918-37.529-24.87-60.04-24.87z" stroke="#496dae" stroke-dasharray="508.397169921365,25.10016164606355" stroke-dashoffset="533.497332"/><path d="M16450.7 104.76l28.56 28.57 70.04-66.66" stroke="#6495ed"/></g><g fill="#ffffff" stroke-width="20" stroke-miterlimit="10"><path d="M16700 15.09c-22.511 0-44.123 8.952-60.04 24.87-15.918 15.917-24.87 37.529-24.87 60.04 0 22.511 8.952 44.123 24.87 60.04 15.917 15.918 37.529 24.87 60.04 24.87 22.511 0 44.123-8.952 60.04-24.87 15.918-15.917 24.87-37.529 24.87-60.04 0-22.511-8.952-44.123-24.87-60.04-15.917-15.918-37.529-24.87-60.04-24.87z" stroke="#4d72b6" stroke-dasharray="514.9345038050014,18.56282776242715" stroke-dashoffset="533.497332"/><path d="M16650.7 104.76l28.56 28.57 70.04-66.66" stroke="#6495ed"/></g><g fill="#ffffff" stroke-width="20" stroke-miterlimit="10"><path d="M16900 15.09c-22.511 0-44.123 8.952-60.04 24.87-15.918 15.917-24.87 37.529-24.87 60.04 0 22.511 8.952 44.123 24.87 60.04 15.917 15.918 37.529 24.87 60.04 24.87 22.511 0 44.123-8.952 60.04-24.87 15.918-15.917 24.87-37.529 24.87-60.04 0-22.511-8.952-44.123-24.87-60.04-15.917-15.918-37.529-24.87-60.04-24.87z" stroke="#5077be" stroke-dasharray="520.3026181857493,13.194713381679207" stroke-dashoffset="533.497332"/><path d="M16850.7 104.76l28.56 28.57 70.04-66.66" stroke="#6495ed"/></g><g fill="#ffffff" stroke-width="20" stroke-miterlimit="10"><path d="M17100 15.09c-22.511 0-44.123 8.952-60.04 24.87-15.918 15.917-24.87 37.529-24.87 60.04 0 22.511 8.952 44.123 24.87 60.04 15.917 15.918 37.529 24.87 60.04 24.87 22.511 0 44.123-8.952 60.04-24.87 15.918-15.917 24.87-37.529 24.87-60.04 0-22.511-8.952-44.123-24.87-60.04-15.917-15.918-37.529-24.87-60.04-24.87z" stroke="#537cc6" stroke-dasharray="524.619208097822,8.878123469606527" stroke-dashoffset="533.497332"/><path d="M17050.7 104.76l28.56 28.57 70.04-66.66" stroke="#6495ed"/></g><g fill="#ffffff" stroke-width="20" stroke-miterlimit="10"><path d="M17300 15.09c-22.511 0-44.123 8.952-60.04 24.87-15.918 15.917-24.87 37.529-24.87 60.04 0 22.511 8.952 44.123 24.87 60.04 15.917 15.918 37.529 24.87 60.04 24.87 22.511 0 44.123-8.952 60.04-24.87 15.918-15.917 24.87-37.529 24.87-60.04 0-22.511-8.952-44.123-24.87-60.04-15.917-15.918-37.529-24.87-60.04-24.87z" stroke="#5781cd" stroke-dasharray="527.9846410566164,5.512690510812148" stroke-dashoffset="533.497332"/><path d="M17250.7 104.76l28.56 28.57 70.04-66.66" stroke="#6495ed"/></g><g fill="#ffffff" stroke-width="20" stroke-miterlimit="10"><path d="M17500 15.09c-22.511 0-44.123 8.952-60.04 24.87-15.918 15.917-24.87 37.529-24.87 60.04 0 22.511 8.952 44.123 24.87 60.04 15.917 15.918 37.529 24.87 60.04 24.87 22.511 0 44.123-8.952 60.04-24.87 15.918-15.917 24.87-37.529 24.87-60.04 0-22.511-8.952-44.123-24.87-60.04-15.917-15.918-37.529-24.87-60.04-24.87z" stroke="#5a86d5" stroke-dasharray="530.4851676147125,3.0121639527160746" stroke-dashoffset="533.497332"/><path d="M17450.7 104.76l28.56 28.57 70.04-66.66" stroke="#6495ed"/></g><g fill="#ffffff" stroke-width="20" stroke-miterlimit="10"><path d="M17700 15.09c-22.511 0-44.123 8.952-60.04 24.87-15.918 15.917-24.87 37.529-24.87 60.04 0 22.511 8.952 44.123 24.87 60.04 15.917 15.918 37.529 24.87 60.04 24.87 22.511 0 44.123-8.952 60.04-24.87 15.918-15.917 24.87-37.529 24.87-60.04 0-22.511-8.952-44.123-24.87-60.04-15.917-15.918-37.529-24.87-60.04-24.87z" stroke="#5d8bdd" stroke-dasharray="532.1954374876374,1.3018940797912097" stroke-dashoffset="533.497332"/><path d="M17650.7 104.76l28.56 28.57 70.04-66.66" stroke="#6495ed"/></g><g fill="#ffffff" stroke-width="20" stroke-miterlimit="10"><path d="M17900 15.09c-22.511 0-44.123 8.952-60.04 24.87-15.918 15.917-24.87 37.529-24.87 60.04 0 22.511 8.952 44.123 24.87 60.04 15.917 15.918 37.529 24.87 60.04 24.87 22.511 0 44.123-8.952 60.04-24.87 15.918-15.917 24.87-37.529 24.87-60.04 0-22.511-8.952-44.123-24.87-60.04-15.917-15.918-37.529-24.87-60.04-24.87z" stroke="#6190e5" stroke-dasharray="533.1804883855438,0.3168431818847527" stroke-dashoffset="533.497332"/><path d="M17850.7 104.76l28.56 28.57 70.04-66.66" stroke="#6495ed"/></g><g fill="#ffffff" stroke="#6495ed" stroke-width="20" stroke-miterlimit="10"><path d="M18100 15.09c-22.511 0-44.123 8.952-60.04 24.87-15.918 15.917-24.87 37.529-24.87 60.04 0 22.511 8.952 44.123 24.87 60.04 15.917 15.918 37.529 24.87 60.04 24.87 22.511 0 44.123-8.952 60.04-24.87 15.918-15.917 24.87-37.529 24.87-60.04 0-22.511-8.952-44.123-24.87-60.04-15.917-15.918-37.529-24.87-60.04-24.87z"/><path d="M18050.7 104.76l28.56 28.57 70.04-66.66"/></g></svg>